STARTFONT 2.1
COMMENT "16-point bold 3270 font"
COMMENT "Uses nonstandard ordering:"
COMMENT " Page 0: EBCDIC US-International set, CG order"
COMMENT " Page 1: EBCDIC APL/APL2 set, CG order (incomplete)"
COMMENT " Page 2: (first 16 characters only) DEC line-drawing characters from"
COMMENT "  fixed-width X fonts"
COMMENT ""
COMMENT "Copyright (c) 1994-2009, Paul Mattes."
COMMENT "Copyright (c) 1989, Georgia Tech Research Corporation (GTRC),"
COMMENT " Atlanta, GA 30332."
COMMENT "All rights reserved."
COMMENT ""
COMMENT "Redistribution and use in source and binary forms, with or"
COMMENT "without modification, are permitted provided that the following"
COMMENT "conditions are met:"
COMMENT "    * Redistributions of source code must retain the above"
COMMENT "      copyright notice, this list of conditions and the following"
COMMENT "      disclaimer."
COMMENT "    * Redistributions in binary form must reproduce the above"
COMMENT "      copyright notice, this list of conditions and the following"
COMMENT "      disclaimer in the documentation and/or other materials"
COMMENT "      provided with the distribution."
COMMENT "    * Neither the names of Paul Mattes, GTRC nor their"
COMMENT "      contributors may be used to endorse or promote products"
COMMENT "      derived from this software without specific prior written"
COMMENT "      permission."
COMMENT ""
COMMENT "THIS SOFTWARE IS PROVIDED BY PAUL MATTES AND GTRC 'AS IS' AND"
COMMENT "ANY EXPRESS OR IMPLIED WARRANTIES, INCLUDING, BUT NOT LIMITED"
COMMENT "TO, THE IMPLIED WARRANTIES OF MERCHANTABILITY AND FITNESS FOR"
COMMENT "A PARTICULAR PURPOSE ARE DISCLAIMED. IN NO EVENT SHALL PAUL"
COMMENT "MATTES OR GTRC BE LIABLE FOR ANY DIRECT, INDIRECT, INCIDENTAL,"
COMMENT "SPECIAL, EXEMPLARY, OR CONSEQUENTIAL DAMAGES (INCLUDING, BUT"
COMMENT "NOT LIMITED TO, PROCUREMENT OF SUBSTITUTE GOODS OR SERVICES;"
COMMENT "LOSS OF USE, DATA, OR PROFITS; OR BUSINESS INTERRUPTION) HOWEVER"

STARTCHAR null
ENCODING 0
SWIDTH 563 0
DWIDTH 9 0
BBX 9 16 0 -4
BITMAP
0000
0000
0000
0000
0000
0000
0000
0000
0000
0000
0000
0000
0000
0000
0000
0000
ENDCHAR
STARTCHAR nobreakspace
ENCODING 1
SWIDTH 563 0
DWIDTH 9 0
BBX 9 16 0 -4
BITMAP
0000
0000
0000
0000
0000
0000
0000
0000
0000
0000
0000
0000
0000
0000
0000
0000
ENDCHAR
STARTCHAR euro
ENCODING 2
SWIDTH 563 0
DWIDTH 9 0
BBX 9 16 0 -4
BITMAP
0000
0000
0000
1E00
3300
6000
FF00
6000
FE00
6000
3300
1E00
0000
0000
0000
0000
ENDCHAR
STARTCHAR cr
ENCODING 3
SWIDTH 563 0
DWIDTH 9 0
BBX 9 16 0 -4
BITMAP
0000
0000
0000
0000
0000
0000
0000
0000
0000
0000
0000
0000
0000
0000
0000
0000
ENDCHAR
STARTCHAR nl
ENCODING 4
SWIDTH 563 0
DWIDTH 9 0
BBX 9 16 0 -4
BITMAP
0000
0000
0000
0000
0000
0000
0000
0000
0000
0000
0000
0000
0000
0000
0000
0000
ENDCHAR
STARTCHAR em
ENCODING 5
SWIDTH 563 0
DWIDTH 9 0
BBX 9 16 0 -4
BITMAP
0000
0000
0000
0000
0000
0000
0000
0000
0000
0000
0000
0000
0000
0000
0000
0000
ENDCHAR
STARTCHAR eightones
ENCODING 6
SWIDTH 563 0
DWIDTH 9 0
BBX 9 16 0 -4
BITMAP
0000
0000
0000
0000
1c00
3e00
7f00
7f00
7f00
3e00
1c00
0000
0000
0000
0000
0000
ENDCHAR
STARTCHAR hyphen
ENCODING 7
SWIDTH 563 0
DWIDTH 9 0
BBX 9 16 0 -4
BITMAP
0000
0000
0000
0000
0000
0000
0000
3f00
0000
0000
0000
0000
0000
0000
0000
0000
ENDCHAR
STARTCHAR greater
ENCODING 8
SWIDTH 563 0
DWIDTH 9 0
BBX 9 16 0 -4
BITMAP
0000
0000
0000
3000
1800
0c00
0600
0300
0600
0c00
1800
3000
0000
0000
0000
0000
ENDCHAR
STARTCHAR less
ENCODING 9
SWIDTH 563 0
DWIDTH 9 0
BBX 9 16 0 -4
BITMAP
0000
0000
0000
0300
0600
0c00
1800
3000
1800
0c00
0600
0300
0000
0000
0000
0000
ENDCHAR
STARTCHAR bracketleft
ENCODING 10
SWIDTH 563 0
DWIDTH 9 0
BBX 9 16 0 -4
BITMAP
0000
0000
1e00
1800
1800
1800
1800
1800
1800
1800
1800
1800
1e00
0000
0000
0000
ENDCHAR
STARTCHAR bracketright
ENCODING 11
SWIDTH 563 0
DWIDTH 9 0
BBX 9 16 0 -4
BITMAP
0000
0000
1e00
0600
0600
0600
0600
0600
0600
0600
0600
0600
1e00
0000
0000
0000
ENDCHAR
STARTCHAR parenright
ENCODING 12
SWIDTH 563 0
DWIDTH 9 0
BBX 9 16 0 -4
BITMAP
0000
0000
0000
1800
0c00
0600
0600
0600
0600
0600
0c00
1800
0000
0000
0000
0000
ENDCHAR
STARTCHAR parenleft
ENCODING 13
SWIDTH 563 0
DWIDTH 9 0
BBX 9 16 0 -4
BITMAP
0000
0000
0000
0600
0c00
1800
1800
1800
1800
1800
0c00
0600
0000
0000
0000
0000
ENDCHAR
STARTCHAR braceright
ENCODING 14
SWIDTH 563 0
DWIDTH 9 0
BBX 9 16 0 -4
BITMAP
0000
0000
3800
0c00
0c00
0c00
0c00
0600
0c00
0c00
0c00
0c00
3800
0000
0000
0000
ENDCHAR
STARTCHAR braceleft
ENCODING 15
SWIDTH 563 0
DWIDTH 9 0
BBX 9 16 0 -4
BITMAP
0000
0000
0e00
1800
1800
1800
1800
3000
1800
1800
1800
1800
0e00
0000
0000
0000
ENDCHAR
STARTCHAR space
ENCODING 16
SWIDTH 563 0
DWIDTH 9 0
BBX 9 16 0 -4
BITMAP
0000
0000
0000
0000
0000
0000
0000
0000
0000
0000
0000
0000
0000
0000
0000
0000
ENDCHAR
STARTCHAR equal
ENCODING 17
SWIDTH 563 0
DWIDTH 9 0
BBX 9 16 0 -4
BITMAP
0000
0000
0000
0000
0000
7f80
0000
0000
7f80
0000
0000
0000
0000
0000
0000
0000
ENDCHAR
STARTCHAR apostrophe
ENCODING 18
SWIDTH 563 0
DWIDTH 9 0
BBX 9 16 0 -4
BITMAP
0000
0000
0c00
0c00
0c00
0000
0000
0000
0000
0000
0000
0000
0000
0000
0000
0000
ENDCHAR
STARTCHAR quotedbl
ENCODING 19
SWIDTH 563 0
DWIDTH 9 0
BBX 9 16 0 -4
BITMAP
0000
0000
3600
3600
3600
0000
0000
0000
0000
0000
0000
0000
0000
0000
0000
0000
ENDCHAR
STARTCHAR slash
ENCODING 20
SWIDTH 563 0
DWIDTH 9 0
BBX 9 16 0 -4
BITMAP
0000
0000
0000
0000
0180
0300
0600
0c00
1800
3000
6000
0000
0000
0000
0000
0000
ENDCHAR
STARTCHAR backslash
ENCODING 21
SWIDTH 563 0
DWIDTH 9 0
BBX 9 16 0 -4
BITMAP
0000
0000
0000
0000
6000
3000
1800
0c00
0600
0300
0180
0000
0000
0000
0000
0000
ENDCHAR
STARTCHAR bar
ENCODING 22
SWIDTH 563 0
DWIDTH 9 0
BBX 9 16 0 -4
BITMAP
0000
0c00
0c00
0c00
0c00
0c00
0c00
0c00
0c00
0c00
0c00
0c00
0c00
0c00
0000
0000
ENDCHAR
STARTCHAR brokenbar
ENCODING 23
SWIDTH 563 0
DWIDTH 9 0
BBX 9 16 0 -4
BITMAP
0000
0000
0c00
0c00
0c00
0c00
0c00
0000
0000
0c00
0c00
0c00
0c00
0c00
0000
0000
ENDCHAR
STARTCHAR question
ENCODING 24
SWIDTH 563 0
DWIDTH 9 0
BBX 9 16 0 -4
BITMAP
0000
0000
1f00
3180
3180
0300
0600
0c00
0c00
0000
0000
0c00
0000
0000
0000
0000
ENDCHAR
STARTCHAR exclam
ENCODING 25
SWIDTH 563 0
DWIDTH 9 0
BBX 9 16 0 -4
BITMAP
0000
0000
0c00
0c00
0c00
0c00
0c00
0c00
0c00
0000
0000
0c00
0000
0000
0000
0000
ENDCHAR
STARTCHAR dollar
ENCODING 26
SWIDTH 563 0
DWIDTH 9 0
BBX 9 16 0 -4
BITMAP
0000
0000
0c00
0c00
3f80
6c00
6c00
3f00
0d80
0d80
7f00
0c00
0c00
0000
0000
0000
ENDCHAR
STARTCHAR cent
ENCODING 27
SWIDTH 563 0
DWIDTH 9 0
BBX 9 16 0 -4
BITMAP
0000
0000
0c00
0c00
3f00
6c00
6c00
6c00
3f00
0c00
0c00
0000
0000
0000
0000
0000
ENDCHAR
STARTCHAR sterling
ENCODING 28
SWIDTH 563 0
DWIDTH 9 0
BBX 9 16 0 -4
BITMAP
0000
0000
0e00
1b00
1800
1800
7e00
1800
1800
1800
7980
7f00
0000
0000
0000
0000
ENDCHAR
STARTCHAR yen
ENCODING 29
SWIDTH 563 0
DWIDTH 9 0
BBX 9 16 0 -4
BITMAP
0000
0000
6180
3300
1e00
0c00
7f80
0c00
0c00
7f80
0c00
0c00
0000
0000
0000
0000
ENDCHAR
STARTCHAR paragraph
ENCODING 30
SWIDTH 563 0
DWIDTH 9 0
BBX 9 16 0 -4
BITMAP
0000
0000
7c00
6600
6600
6600
7c00
6000
6600
6f00
6600
6600
0600
0000
0000
0000
ENDCHAR
STARTCHAR currency
ENCODING 31
SWIDTH 563 0
DWIDTH 9 0
BBX 9 16 0 -4
BITMAP
0000
0000
0000
6180
3300
1e00
3300
3300
3300
1e00
3300
6180
0000
0000
0000
0000
ENDCHAR
STARTCHAR 0
ENCODING 32
SWIDTH 563 0
DWIDTH 9 0
BBX 9 16 0 -4
BITMAP
0000
0000
1e00
3300
6180
6180
6d80
6d80
6180
6180
3300
1e00
0000
0000
0000
0000
ENDCHAR
STARTCHAR 1
ENCODING 33
SWIDTH 563 0
DWIDTH 9 0
BBX 9 16 0 -4
BITMAP
0000
0000
0c00
1c00
3c00
0c00
0c00
0c00
0c00
0c00
0c00
0c00
0000
0000
0000
0000
ENDCHAR
STARTCHAR 2
ENCODING 34
SWIDTH 563 0
DWIDTH 9 0
BBX 9 16 0 -4
BITMAP
0000
0000
1f00
3180
6180
0180
0300
0600
0c00
1800
3000
7f80
0000
0000
0000
0000
ENDCHAR
STARTCHAR 3
ENCODING 35
SWIDTH 563 0
DWIDTH 9 0
BBX 9 16 0 -4
BITMAP
0000
0000
3f80
0180
0300
0600
0e00
0300
0180
0180
6300
3e00
0000
0000
0000
0000
ENDCHAR
STARTCHAR 4
ENCODING 36
SWIDTH 563 0
DWIDTH 9 0
BBX 9 16 0 -4
BITMAP
0000
0000
0700
0f00
1b00
3300
6300
6300
7f80
0300
0300
0300
0000
0000
0000
0000
ENDCHAR
STARTCHAR 5
ENCODING 37
SWIDTH 563 0
DWIDTH 9 0
BBX 9 16 0 -4
BITMAP
0000
0000
7f80
6000
6000
7e00
0300
0180
0180
0180
0300
7e00
0000
0000
0000
0000
ENDCHAR
STARTCHAR 6
ENCODING 38
SWIDTH 563 0
DWIDTH 9 0
BBX 9 16 0 -4
BITMAP
0000
0000
1800
3000
6000
6000
7e00
7300
6180
6180
3300
1e00
0000
0000
0000
0000
ENDCHAR
STARTCHAR 7
ENCODING 39
SWIDTH 563 0
DWIDTH 9 0
BBX 9 16 0 -4
BITMAP
0000
0000
7f80
0180
0300
0600
0c00
1800
1800
1800
1800
1800
0000
0000
0000
0000
ENDCHAR
STARTCHAR 8
ENCODING 40
SWIDTH 563 0
DWIDTH 9 0
BBX 9 16 0 -4
BITMAP
0000
0000
1e00
3300
3300
3300
1e00
3300
6180
6180
3300
1e00
0000
0000
0000
0000
ENDCHAR
STARTCHAR 9
ENCODING 41
SWIDTH 563 0
DWIDTH 9 0
BBX 9 16 0 -4
BITMAP
0000
0000
1f00
3180
6180
6380
6780
3d80
0180
0180
0180
0300
0000
0000
0000
0000
ENDCHAR
STARTCHAR ssharp
ENCODING 42
SWIDTH 563 0
DWIDTH 9 0
BBX 9 16 0 -4
BITMAP
0000
0000
1c00
3600
6600
6c00
6600
6300
6180
6180
7980
6f00
0000
0000
0000
0000
ENDCHAR
STARTCHAR section
ENCODING 43
SWIDTH 563 0
DWIDTH 9 0
BBX 9 16 0 -4
BITMAP
0000
0000
1e00
3000
3000
7800
6c00
6600
3300
1b00
0f00
0600
0600
3c00
0000
0000
ENDCHAR
STARTCHAR numbersign
ENCODING 44
SWIDTH 563 0
DWIDTH 9 0
BBX 9 16 0 -4
BITMAP
0000
0000
0000
3600
7f00
3600
3600
7f00
3600
0000
0000
0000
0000
0000
0000
0000
ENDCHAR
STARTCHAR at
ENCODING 45
SWIDTH 563 0
DWIDTH 9 0
BBX 9 16 0 -4
BITMAP
0000
0000
3f00
6180
6180
6f80
7f80
7f00
6000
6000
6000
3f80
0000
0000
0000
0000
ENDCHAR
STARTCHAR percent
ENCODING 46
SWIDTH 563 0
DWIDTH 9 0
BBX 9 16 0 -4
BITMAP
0000
0000
3000
7800
3180
0300
0600
0c00
1800
3000
6300
0780
0300
0000
0000
0000
ENDCHAR
STARTCHAR underscore
ENCODING 47
SWIDTH 563 0
DWIDTH 9 0
BBX 9 16 0 -4
BITMAP
0000
0000
0000
0000
0000
0000
0000
0000
0000
0000
0000
0000
7f80
0000
0000
0000
ENDCHAR
STARTCHAR ampersand
ENCODING 48
SWIDTH 563 0
DWIDTH 9 0
BBX 9 16 0 -4
BITMAP
0000
0000
0000
3800
6c00
6c00
6c00
3800
7980
6f00
6600
3f00
0180
0000
0000
0000
ENDCHAR
STARTCHAR minus
ENCODING 49
SWIDTH 563 0
DWIDTH 9 0
BBX 9 16 0 -4
BITMAP
0000
0000
0000
0000
0000
0000
0000
3f00
0000
0000
0000
0000
0000
0000
0000
0000
ENDCHAR
STARTCHAR period
ENCODING 50
SWIDTH 563 0
DWIDTH 9 0
BBX 9 16 0 -4
BITMAP
0000
0000
0000
0000
0000
0000
0000
0000
0000
0000
1c00
1c00
0000
0000
0000
0000
ENDCHAR
STARTCHAR comma
ENCODING 51
SWIDTH 563 0
DWIDTH 9 0
BBX 9 16 0 -4
BITMAP
0000
0000
0000
0000
0000
0000
0000
0000
0000
0000
0e00
0e00
1c00
3800
0000
0000
ENDCHAR
STARTCHAR colon
ENCODING 52
SWIDTH 563 0
DWIDTH 9 0
BBX 9 16 0 -4
BITMAP
0000
0000
0000
0000
0000
0000
1c00
1c00
0000
0000
1c00
1c00
0000
0000
0000
0000
ENDCHAR
STARTCHAR plus
ENCODING 53
SWIDTH 563 0
DWIDTH 9 0
BBX 9 16 0 -4
BITMAP
0000
0000
0000
0000
0c00
0c00
0c00
7f80
0c00
0c00
0c00
0000
0000
0000
0000
0000
ENDCHAR
STARTCHAR notsign
ENCODING 54
SWIDTH 563 0
DWIDTH 9 0
BBX 9 16 0 -4
BITMAP
0000
0000
0000
7f80
0180
0180
0000
0000
0000
0000
0000
0000
0000
0000
0000
0000
ENDCHAR
STARTCHAR macron
ENCODING 55
SWIDTH 563 0
DWIDTH 9 0
BBX 9 16 0 -4
BITMAP
0000
0000
7f80
0000
0000
0000
0000
0000
0000
0000
0000
0000
0000
0000
0000
0000
ENDCHAR
STARTCHAR degree
ENCODING 56
SWIDTH 563 0
DWIDTH 9 0
BBX 9 16 0 -4
BITMAP
0000
0000
1c00
3600
3600
1c00
0000
0000
0000
0000
0000
0000
0000
0000
0000
0000
ENDCHAR
STARTCHAR periodcentered
ENCODING 57
SWIDTH 563 0
DWIDTH 9 0
BBX 9 16 0 -4
BITMAP
0000
0000
0000
0000
0000
0000
1c00
1c00
0000
0000
0000
0000
0000
0000
0000
0000
ENDCHAR
STARTCHAR asciicircum
ENCODING 58
SWIDTH 563 0
DWIDTH 9 0
BBX 9 16 0 -4
BITMAP
0000
0000
0c00
1e00
3300
0000
0000
0000
0000
0000
0000
0000
0000
0000
0000
0000
ENDCHAR
STARTCHAR asciitilde
ENCODING 59
SWIDTH 563 0
DWIDTH 9 0
BBX 9 16 0 -4
BITMAP
0000
0000
3800
6d80
0700
0000
0000
0000
0000
0000
0000
0000
0000
0000
0000
0000
ENDCHAR
STARTCHAR diaeresis
ENCODING 60
SWIDTH 563 0
DWIDTH 9 0
BBX 9 16 0 -4
BITMAP
0000
0000
7380
7380
0000
0000
0000
0000
0000
0000
0000
0000
0000
0000
0000
0000
ENDCHAR
STARTCHAR grave
ENCODING 61
SWIDTH 563 0
DWIDTH 9 0
BBX 9 16 0 -4
BITMAP
0000
0000
1800
0c00
0600
0000
0000
0000
0000
0000
0000
0000
0000
0000
0000
0000
ENDCHAR
STARTCHAR acute
ENCODING 62
SWIDTH 563 0
DWIDTH 9 0
BBX 9 16 0 -4
BITMAP
0000
0000
0600
0c00
1800
0000
0000
0000
0000
0000
0000
0000
0000
0000
0000
0000
ENDCHAR
STARTCHAR cedilla
ENCODING 63
SWIDTH 563 0
DWIDTH 9 0
BBX 9 16 0 -4
BITMAP
0000
0000
0000
0000
0000
0000
0000
0000
0000
0000
0c00
0c00
0c00
3800
0000
0000
ENDCHAR
STARTCHAR agrave
ENCODING 64
SWIDTH 563 0
DWIDTH 9 0
BBX 9 16 0 -4
BITMAP
0000
3000
1800
0c00
0000
3e00
0300
0300
3f00
6300
6300
3f80
0000
0000
0000
0000
ENDCHAR
STARTCHAR egrave
ENCODING 65
SWIDTH 563 0
DWIDTH 9 0
BBX 9 16 0 -4
BITMAP
0000
3000
1800
0c00
0000
3e00
6300
6300
7f00
6000
6000
3f00
0000
0000
0000
0000
ENDCHAR
STARTCHAR igrave
ENCODING 66
SWIDTH 563 0
DWIDTH 9 0
BBX 9 16 0 -4
BITMAP
0000
1800
0c00
0600
0000
0000
0c00
0c00
0c00
0c00
0c00
0c00
0000
0000
0000
0000
ENDCHAR
STARTCHAR ograve
ENCODING 67
SWIDTH 563 0
DWIDTH 9 0
BBX 9 16 0 -4
BITMAP
0000
3000
1800
0c00
0000
3e00
6300
6300
6300
6300
6300
3e00
0000
0000
0000
0000
ENDCHAR
STARTCHAR ugrave
ENCODING 68
SWIDTH 563 0
DWIDTH 9 0
BBX 9 16 0 -4
BITMAP
0000
3000
1800
0c00
0000
6300
6300
6300
6300
6300
6300
3f80
0000
0000
0000
0000
ENDCHAR
STARTCHAR atilde
ENCODING 69
SWIDTH 563 0
DWIDTH 9 0
BBX 9 16 0 -4
BITMAP
0000
0000
1d80
3700
0000
3e00
0300
0300
3f00
6300
6300
3f80
0000
0000
0000
0000
ENDCHAR
STARTCHAR otilde
ENCODING 70
SWIDTH 563 0
DWIDTH 9 0
BBX 9 16 0 -4
BITMAP
0000
0000
3b00
6e00
0000
3e00
6300
6300
6300
6300
6300
3e00
0000
0000
0000
0000
ENDCHAR
STARTCHAR ydiaeresis
ENCODING 71
SWIDTH 563 0
DWIDTH 9 0
BBX 9 16 0 -4
BITMAP
0000
0000
3600
0000
0000
6300
6300
6300
6300
3300
1e00
0c00
1800
3000
6000
0000
ENDCHAR
STARTCHAR Yacute
ENCODING 72
SWIDTH 563 0
DWIDTH 9 0
BBX 9 16 0 -4
BITMAP
0000
0300
0600
0c00
6180
3300
1e00
0c00
0c00
0c00
0c00
0c00
0000
0000
0000
0000
ENDCHAR
STARTCHAR yacute
ENCODING 73
SWIDTH 563 0
DWIDTH 9 0
BBX 9 16 0 -4
BITMAP
0000
0300
0600
0c00
0000
6300
6300
6300
6300
3300
1e00
0c00
1800
3000
6000
0000
ENDCHAR
STARTCHAR eacute
ENCODING 74
SWIDTH 563 0
DWIDTH 9 0
BBX 9 16 0 -4
BITMAP
0000
0300
0600
0c00
0000
3e00
6300
6300
7f00
6000
6000
3f00
0000
0000
0000
0000
ENDCHAR
STARTCHAR onequarter
ENCODING 75
SWIDTH 563 0
DWIDTH 9 0
BBX 9 16 0 -4
BITMAP
0000
3000
7000
3000
3000
3000
3000
0300
0700
0f00
0f80
0300
0300
0000
0000
0000
ENDCHAR
STARTCHAR onehalf
ENCODING 76
SWIDTH 563 0
DWIDTH 9 0
BBX 9 16 0 -4
BITMAP
0000
3000
7000
3000
3000
3000
3000
0700
0d80
0180
0700
0c00
0f80
0000
0000
0000
ENDCHAR
STARTCHAR threequarters
ENCODING 77
SWIDTH 563 0
DWIDTH 9 0
BBX 9 16 0 -4
BITMAP
0000
7800
1800
3000
1800
7800
3000
0300
0700
0f00
0f80
0300
0300
0000
0000
0000
ENDCHAR
STARTCHAR udiaeresis
ENCODING 78
SWIDTH 563 0
DWIDTH 9 0
BBX 9 16 0 -4
BITMAP
0000
0000
3600
0000
0000
6300
6300
6300
6300
6300
6300
3f80
0000
0000
0000
0000
ENDCHAR
STARTCHAR ccedilla
ENCODING 79
SWIDTH 563 0
DWIDTH 9 0
BBX 9 16 0 -4
BITMAP
0000
0000
0000
0000
0000
1f00
3000
6000
6000
6000
3000
1f00
0c00
3c00
0000
0000
ENDCHAR
STARTCHAR adiaeresis
ENCODING 80
SWIDTH 563 0
DWIDTH 9 0
BBX 9 16 0 -4
BITMAP
0000
0000
3600
0000
0000
3e00
0300
0300
3f00
6300
6300
3f80
0000
0000
0000
0000
ENDCHAR
STARTCHAR ediaeresis
ENCODING 81
SWIDTH 563 0
DWIDTH 9 0
BBX 9 16 0 -4
BITMAP
0000
0000
3600
0000
0000
3e00
6300
6300
7f00
6000
6000
3f00
0000
0000
0000
0000
ENDCHAR
STARTCHAR idiaeresis
ENCODING 82
SWIDTH 563 0
DWIDTH 9 0
BBX 9 16 0 -4
BITMAP
0000
0000
3300
0000
0000
0c00
0c00
0c00
0c00
0c00
0c00
0c00
0000
0000
0000
0000
ENDCHAR
STARTCHAR odiaeresis
ENCODING 83
SWIDTH 563 0
DWIDTH 9 0
BBX 9 16 0 -4
BITMAP
0000
0000
3600
0000
0000
3e00
6300
6300
6300
6300
6300
3e00
0000
0000
0000
0000
ENDCHAR
STARTCHAR mu
ENCODING 84
SWIDTH 563 0
DWIDTH 9 0
BBX 9 16 0 -4
BITMAP
0000
0000
0000
0000
0000
6300
6300
6300
6300
6300
7300
7f80
6000
6000
6000
0000
ENDCHAR
STARTCHAR acircumflex
ENCODING 85
SWIDTH 563 0
DWIDTH 9 0
BBX 9 16 0 -4
BITMAP
0000
0000
0c00
1e00
0000
3e00
0300
0300
3f00
6300
6300
3f80
0000
0000
0000
0000
ENDCHAR
STARTCHAR ecircumflex
ENCODING 86
SWIDTH 563 0
DWIDTH 9 0
BBX 9 16 0 -4
BITMAP
0000
0000
0c00
1e00
0000
3e00
6300
6300
7f00
6000
6000
3f00
0000
0000
0000
0000
ENDCHAR
STARTCHAR icircumflex
ENCODING 87
SWIDTH 563 0
DWIDTH 9 0
BBX 9 16 0 -4
BITMAP
0000
0000
0c00
1e00
0000
0000
0c00
0c00
0c00
0c00
0c00
0c00
0000
0000
0000
0000
ENDCHAR
STARTCHAR ocircumflex
ENCODING 88
SWIDTH 563 0
DWIDTH 9 0
BBX 9 16 0 -4
BITMAP
0000
0000
0c00
1e00
0000
1e00
3300
3300
3300
3300
3300
1e00
0000
0000
0000
0000
ENDCHAR
STARTCHAR ucircumflex
ENCODING 89
SWIDTH 563 0
DWIDTH 9 0
BBX 9 16 0 -4
BITMAP
0000
0000
1800
3c00
0000
6600
6600
6600
6600
6600
6600
3f00
0000
0000
0000
0000
ENDCHAR
STARTCHAR aacute
ENCODING 90
SWIDTH 563 0
DWIDTH 9 0
BBX 9 16 0 -4
BITMAP
0000
0300
0600
0c00
0000
3e00
0300
0300
3f00
6300
6300
3f80
0000
0000
0000
0000
ENDCHAR
STARTCHAR multiply
ENCODING 91
SWIDTH 563 0
DWIDTH 9 0
BBX 9 16 0 -4
BITMAP
0000
0000
0000
6180
3300
1e00
0c00
1e00
3300
6180
0000
0000
0000
0000
0000
0000
ENDCHAR
STARTCHAR iacute
ENCODING 92
SWIDTH 563 0
DWIDTH 9 0
BBX 9 16 0 -4
BITMAP
0000
0600
0c00
1800
0000
0000
0c00
0c00
0c00
0c00
0c00
0c00
0000
0000
0000
0000
ENDCHAR
STARTCHAR oacute
ENCODING 93
SWIDTH 563 0
DWIDTH 9 0
BBX 9 16 0 -4
BITMAP
0000
0600
0c00
1800
0000
3e00
6300
6300
6300
6300
6300
3e00
0000
0000
0000
0000
ENDCHAR
STARTCHAR uacute
ENCODING 94
SWIDTH 563 0
DWIDTH 9 0
BBX 9 16 0 -4
BITMAP
0000
0600
0c00
1800
0000
6300
6300
6300
6300
6300
6300
3f80
0000
0000
0000
0000
ENDCHAR
STARTCHAR ntilde
ENCODING 95
SWIDTH 563 0
DWIDTH 9 0
BBX 9 16 0 -4
BITMAP
0000
0000
1d80
3700
0000
7f00
3180
3180
3180
3180
3180
3180
0000
0000
0000
0000
ENDCHAR
STARTCHAR Agrave
ENCODING 96
SWIDTH 563 0
DWIDTH 9 0
BBX 9 16 0 -4
BITMAP
0000
0c00
0600
0300
0c00
1e00
3300
6180
7f80
6180
6180
6180
0000
0000
0000
0000
ENDCHAR
STARTCHAR Egrave
ENCODING 97
SWIDTH 563 0
DWIDTH 9 0
BBX 9 16 0 -4
BITMAP
0000
3000
1800
0c00
7f80
6000
6000
7e00
6000
6000
6000
7f80
0000
0000
0000
0000
ENDCHAR
STARTCHAR Igrave
ENCODING 98
SWIDTH 563 0
DWIDTH 9 0
BBX 9 16 0 -4
BITMAP
0000
1800
0c00
0600
0000
1e00
0c00
0c00
0c00
0c00
0c00
1e00
0000
0000
0000
0000
ENDCHAR
STARTCHAR Ograve
ENCODING 99
SWIDTH 563 0
DWIDTH 9 0
BBX 9 16 0 -4
BITMAP
0000
3000
1800
0c00
3f00
6180
6180
6180
6180
6180
6180
3f00
0000
0000
0000
0000
ENDCHAR
STARTCHAR Ugrave
ENCODING 100
SWIDTH 563 0
DWIDTH 9 0
BBX 9 16 0 -4
BITMAP
0000
3000
1800
0c00
6180
6180
6180
6180
6180
6180
6180
3f00
0000
0000
0000
0000
ENDCHAR
STARTCHAR Atilde
ENCODING 101
SWIDTH 563 0
DWIDTH 9 0
BBX 9 16 0 -4
BITMAP
0000
0000
1d80
3700
0000
0c00
1e00
3300
6180
7f80
6180
6180
0000
0000
0000
0000
ENDCHAR
STARTCHAR Otilde
ENCODING 102
SWIDTH 563 0
DWIDTH 9 0
BBX 9 16 0 -4
BITMAP
0000
1d80
3700
3f00
6180
6180
6180
6180
6180
6180
6180
3f00
0000
0000
0000
0000
ENDCHAR
STARTCHAR onesuperior
ENCODING 103
SWIDTH 563 0
DWIDTH 9 0
BBX 9 16 0 -4
BITMAP
0000
0000
0c00
1c00
0c00
0c00
0c00
0c00
0000
0000
0000
0000
0000
0000
0000
0000
ENDCHAR
STARTCHAR twosuperior
ENCODING 104
SWIDTH 563 0
DWIDTH 9 0
BBX 9 16 0 -4
BITMAP
0000
0000
1c00
3600
0600
0c00
1800
3e00
0000
0000
0000
0000
0000
0000
0000
0000
ENDCHAR
STARTCHAR threesuperior
ENCODING 105
SWIDTH 563 0
DWIDTH 9 0
BBX 9 16 0 -4
BITMAP
0000
0000
3e00
0600
0c00
0600
3600
1c00
0000
0000
0000
0000
0000
0000
0000
0000
ENDCHAR
STARTCHAR ordfeminine
ENCODING 106
SWIDTH 563 0
DWIDTH 9 0
BBX 9 16 0 -4
BITMAP
0000
0000
0000
3e00
0300
0300
3f00
6300
6300
3f80
0000
7f80
0000
0000
0000
0000
ENDCHAR
STARTCHAR masculine
ENCODING 107
SWIDTH 563 0
DWIDTH 9 0
BBX 9 16 0 -4
BITMAP
0000
0000
0000
3f00
6180
6180
6180
6180
6180
3f00
0000
7f80
0000
0000
0000
0000
ENDCHAR
STARTCHAR guillemotleft
ENCODING 108
SWIDTH 563 0
DWIDTH 9 0
BBX 9 16 0 -4
BITMAP
0000
0000
0000
0000
0d80
1b00
3600
6c00
3600
1b00
0d80
0000
0000
0000
0000
0000
ENDCHAR
STARTCHAR guillemotright
ENCODING 109
SWIDTH 563 0
DWIDTH 9 0
BBX 9 16 0 -4
BITMAP
0000
0000
0000
0000
6c00
3600
1b00
0d80
1b00
3600
6c00
0000
0000
0000
0000
0000
ENDCHAR
STARTCHAR exclamdown
ENCODING 110
SWIDTH 563 0
DWIDTH 9 0
BBX 9 16 0 -4
BITMAP
0000
0000
0c00
0000
0000
0c00
0c00
0c00
0c00
0c00
0c00
0c00
0000
0000
0000
0000
ENDCHAR
STARTCHAR questiondown
ENCODING 111
SWIDTH 563 0
DWIDTH 9 0
BBX 9 16 0 -4
BITMAP
0000
0000
0c00
0000
0000
0c00
0c00
0600
0300
3180
3180
1f00
0000
0000
0000
0000
ENDCHAR
STARTCHAR Adiaeresis
ENCODING 112
SWIDTH 563 0
DWIDTH 9 0
BBX 9 16 0 -4
BITMAP
0000
3300
0000
0c00
1e00
3300
6180
6180
7f80
6180
6180
6180
0000
0000
0000
0000
ENDCHAR
STARTCHAR Ediaeresis
ENCODING 113
SWIDTH 563 0
DWIDTH 9 0
BBX 9 16 0 -4
BITMAP
0000
3300
0000
7f80
6000
6000
6000
7e00
6000
6000
6000
7f80
0000
0000
0000
0000
ENDCHAR
STARTCHAR Idiaeresis
ENCODING 114
SWIDTH 563 0
DWIDTH 9 0
BBX 9 16 0 -4
BITMAP
0000
3300
0000
1e00
0c00
0c00
0c00
0c00
0c00
0c00
0c00
1e00
0000
0000
0000
0000
ENDCHAR
STARTCHAR Odiaeresis
ENCODING 115
SWIDTH 563 0
DWIDTH 9 0
BBX 9 16 0 -4
BITMAP
0000
3300
0000
3f00
6180
6180
6180
6180
6180
6180
6180
3f00
0000
0000
0000
0000
ENDCHAR
STARTCHAR Udiaeresis
ENCODING 116
SWIDTH 563 0
DWIDTH 9 0
BBX 9 16 0 -4
BITMAP
0000
3300
0000
6180
6180
6180
6180
6180
6180
6180
6180
3f00
0000
0000
0000
0000
ENDCHAR
STARTCHAR Acircumflex
ENCODING 117
SWIDTH 563 0
DWIDTH 9 0
BBX 9 16 0 -4
BITMAP
0000
0c00
1e00
0000
0c00
1e00
3300
6180
7f80
6180
6180
6180
0000
0000
0000
0000
ENDCHAR
STARTCHAR Ecircumflex
ENCODING 118
SWIDTH 563 0
DWIDTH 9 0
BBX 9 16 0 -4
BITMAP
0000
0c00
1e00
0000
7f80
6000
6000
6000
7e00
6000
6000
7f80
0000
0000
0000
0000
ENDCHAR
STARTCHAR Icircumflex
ENCODING 119
SWIDTH 563 0
DWIDTH 9 0
BBX 9 16 0 -4
BITMAP
0000
0c00
1e00
0000
1e00
0c00
0c00
0c00
0c00
0c00
0c00
1e00
0000
0000
0000
0000
ENDCHAR
STARTCHAR Ocircumflex
ENCODING 120
SWIDTH 563 0
DWIDTH 9 0
BBX 9 16 0 -4
BITMAP
0000
0c00
1e00
0000
3f00
6180
6180
6180
6180
6180
6180
3f00
0000
0000
0000
0000
ENDCHAR
STARTCHAR Ucircumflex
ENCODING 121
SWIDTH 563 0
DWIDTH 9 0
BBX 9 16 0 -4
BITMAP
0000
0c00
1e00
0000
6180
6180
6180
6180
6180
6180
6180
3f00
0000
0000
0000
0000
ENDCHAR
STARTCHAR Aacute
ENCODING 122
SWIDTH 563 0
DWIDTH 9 0
BBX 9 16 0 -4
BITMAP
0000
0c00
1800
3000
0c00
1e00
3300
6180
7f80
6180
6180
6180
0000
0000
0000
0000
ENDCHAR
STARTCHAR Eacute
ENCODING 123
SWIDTH 563 0
DWIDTH 9 0
BBX 9 16 0 -4
BITMAP
0000
0300
0600
0c00
7f80
6000
6000
6000
7e00
6000
6000
7f80
0000
0000
0000
0000
ENDCHAR
STARTCHAR Iacute
ENCODING 124
SWIDTH 563 0
DWIDTH 9 0
BBX 9 16 0 -4
BITMAP
0000
0600
0c00
1800
0000
1e00
0c00
0c00
0c00
0c00
0c00
1e00
0000
0000
0000
0000
ENDCHAR
STARTCHAR Oacute
ENCODING 125
SWIDTH 563 0
DWIDTH 9 0
BBX 9 16 0 -4
BITMAP
0000
0300
0600
0c00
3f00
6180
6180
6180
6180
6180
6180
3f00
0000
0000
0000
0000
ENDCHAR
STARTCHAR Uacute
ENCODING 126
SWIDTH 563 0
DWIDTH 9 0
BBX 9 16 0 -4
BITMAP
0000
0300
0600
0c00
6180
6180
6180
6180
6180
6180
6180
3f00
0000
0000
0000
0000
ENDCHAR
STARTCHAR Ntilde
ENCODING 127
SWIDTH 563 0
DWIDTH 9 0
BBX 9 16 0 -4
BITMAP
0000
0000
1d80
3700
0000
6180
7180
7980
6d80
6780
6380
6180
0000
0000
0000
0000
ENDCHAR
STARTCHAR a
ENCODING 128
SWIDTH 563 0
DWIDTH 9 0
BBX 9 16 0 -4
BITMAP
0000
0000
0000
0000
0000
3e00
0300
0300
3f00
6300
6300
3f80
0000
0000
0000
0000
ENDCHAR
STARTCHAR b
ENCODING 129
SWIDTH 563 0
DWIDTH 9 0
BBX 9 16 0 -4
BITMAP
0000
0000
6000
6000
6000
7c00
6600
6300
6300
6300
6600
7c00
0000
0000
0000
0000
ENDCHAR
STARTCHAR c
ENCODING 130
SWIDTH 563 0
DWIDTH 9 0
BBX 9 16 0 -4
BITMAP
0000
0000
0000
0000
0000
1f00
3000
6000
6000
6000
3000
1f00
0000
0000
0000
0000
ENDCHAR
STARTCHAR d
ENCODING 131
SWIDTH 563 0
DWIDTH 9 0
BBX 9 16 0 -4
BITMAP
0000
0000
0300
0300
0300
1f00
3300
6300
6300
6300
3300
1f00
0000
0000
0000
0000
ENDCHAR
STARTCHAR e
ENCODING 132
SWIDTH 563 0
DWIDTH 9 0
BBX 9 16 0 -4
BITMAP
0000
0000
0000
0000
0000
3e00
6300
6300
7f00
6000
6000
3f00
0000
0000
0000
0000
ENDCHAR
STARTCHAR f
ENCODING 133
SWIDTH 563 0
DWIDTH 9 0
BBX 9 16 0 -4
BITMAP
0000
0000
0f00
1800
1800
7e00
1800
1800
1800
1800
1800
1800
0000
0000
0000
0000
ENDCHAR
STARTCHAR g
ENCODING 134
SWIDTH 563 0
DWIDTH 9 0
BBX 9 16 0 -4
BITMAP
0000
0000
0000
0000
0000
1f00
3180
6180
6180
3380
1f80
0180
3180
1f00
0000
0000
ENDCHAR
STARTCHAR h
ENCODING 135
SWIDTH 563 0
DWIDTH 9 0
BBX 9 16 0 -4
BITMAP
0000
0000
6000
6000
6000
7e00
7300
6300
6300
6300
6300
6300
0000
0000
0000
0000
ENDCHAR
STARTCHAR i
ENCODING 136
SWIDTH 563 0
DWIDTH 9 0
BBX 9 16 0 -4
BITMAP
0000
0000
0c00
0000
0000
0c00
0c00
0c00
0c00
0c00
0c00
0c00
0000
0000
0000
0000
ENDCHAR
STARTCHAR j
ENCODING 137
SWIDTH 563 0
DWIDTH 9 0
BBX 9 16 0 -4
BITMAP
0000
0000
0300
0000
0000
0300
0300
0300
0300
0300
0300
0300
3300
1e00
0000
0000
ENDCHAR
STARTCHAR k
ENCODING 138
SWIDTH 563 0
DWIDTH 9 0
BBX 9 16 0 -4
BITMAP
0000
0000
3000
3000
3000
3300
3600
3c00
3800
3c00
3600
3300
0000
0000
0000
0000
ENDCHAR
STARTCHAR l
ENCODING 139
SWIDTH 563 0
DWIDTH 9 0
BBX 9 16 0 -4
BITMAP
0000
0000
0c00
0c00
0c00
0c00
0c00
0c00
0c00
0c00
0c00
0e00
0000
0000
0000
0000
ENDCHAR
STARTCHAR m
ENCODING 140
SWIDTH 563 0
DWIDTH 9 0
BBX 9 16 0 -4
BITMAP
0000
0000
0000
0000
0000
3f00
6d80
6d80
6d80
6d80
6d80
6d80
0000
0000
0000
0000
ENDCHAR
STARTCHAR n
ENCODING 141
SWIDTH 563 0
DWIDTH 9 0
BBX 9 16 0 -4
BITMAP
0000
0000
0000
0000
0000
7f00
3180
3180
3180
3180
3180
3180
0000
0000
0000
0000
ENDCHAR
STARTCHAR o
ENCODING 142
SWIDTH 563 0
DWIDTH 9 0
BBX 9 16 0 -4
BITMAP
0000
0000
0000
0000
0000
3e00
6300
6300
6300
6300
6300
3e00
0000
0000
0000
0000
ENDCHAR
STARTCHAR p
ENCODING 143
SWIDTH 563 0
DWIDTH 9 0
BBX 9 16 0 -4
BITMAP
0000
0000
0000
0000
0000
7c00
6600
6300
6300
6300
6600
7c00
6000
6000
6000
0000
ENDCHAR
STARTCHAR q
ENCODING 144
SWIDTH 563 0
DWIDTH 9 0
BBX 9 16 0 -4
BITMAP
0000
0000
0000
0000
0000
1f00
3300
6300
6300
3300
1f00
0300
0300
0380
0000
0000
ENDCHAR
STARTCHAR r
ENCODING 145
SWIDTH 563 0
DWIDTH 9 0
BBX 9 16 0 -4
BITMAP
0000
0000
0000
0000
0000
6f00
3980
3000
3000
3000
3000
3000
0000
0000
0000
0000
ENDCHAR
STARTCHAR s
ENCODING 146
SWIDTH 563 0
DWIDTH 9 0
BBX 9 16 0 -4
BITMAP
0000
0000
0000
0000
0000
3e00
6300
3000
1c00
0600
6300
3e00
0000
0000
0000
0000
ENDCHAR
STARTCHAR t
ENCODING 147
SWIDTH 563 0
DWIDTH 9 0
BBX 9 16 0 -4
BITMAP
0000
0000
0c00
0c00
0c00
3f00
0c00
0c00
0c00
0c00
0c00
0c00
0000
0000
0000
0000
ENDCHAR
STARTCHAR u
ENCODING 148
SWIDTH 563 0
DWIDTH 9 0
BBX 9 16 0 -4
BITMAP
0000
0000
0000
0000
0000
6300
6300
6300
6300
6300
6300
3f80
0000
0000
0000
0000
ENDCHAR
STARTCHAR v
ENCODING 149
SWIDTH 563 0
DWIDTH 9 0
BBX 9 16 0 -4
BITMAP
0000
0000
0000
0000
0000
6180
6180
3300
3300
1e00
1e00
0c00
0000
0000
0000
0000
ENDCHAR
STARTCHAR w
ENCODING 150
SWIDTH 563 0
DWIDTH 9 0
BBX 9 16 0 -4
BITMAP
0000
0000
0000
0000
0000
6180
6180
6180
6d80
6d80
7f80
3300
0000
0000
0000
0000
ENDCHAR
STARTCHAR x
ENCODING 151
SWIDTH 563 0
DWIDTH 9 0
BBX 9 16 0 -4
BITMAP
0000
0000
0000
0000
0000
6180
3300
1e00
0c00
1e00
3300
6180
0000
0000
0000
0000
ENDCHAR
STARTCHAR y
ENCODING 152
SWIDTH 563 0
DWIDTH 9 0
BBX 9 16 0 -4
BITMAP
0000
0000
0000
0000
0000
6300
6300
6300
6300
3300
1e00
0c00
1800
3000
6000
0000
ENDCHAR
STARTCHAR z
ENCODING 153
SWIDTH 563 0
DWIDTH 9 0
BBX 9 16 0 -4
BITMAP
0000
0000
0000
0000
0000
7f80
0300
0600
0c00
1800
3000
7f80
0000
0000
0000
0000
ENDCHAR
STARTCHAR ae
ENCODING 154
SWIDTH 563 0
DWIDTH 9 0
BBX 9 16 0 -4
BITMAP
0000
0000
0000
0000
0000
7f00
0d80
1d80
3f80
6c00
6c00
3f80
0000
0000
0000
0000
ENDCHAR
STARTCHAR oslash
ENCODING 155
SWIDTH 563 0
DWIDTH 9 0
BBX 9 16 0 -4
BITMAP
0000
0000
0000
0000
0000
1f80
3300
3700
3f00
3b00
3300
7e00
0000
0000
0000
0000
ENDCHAR
STARTCHAR aring
ENCODING 156
SWIDTH 563 0
DWIDTH 9 0
BBX 9 16 0 -4
BITMAP
0000
0000
1e00
1e00
0000
3e00
0300
0300
3f00
6300
6300
3f80
0000
0000
0000
0000
ENDCHAR
STARTCHAR division
ENCODING 157
SWIDTH 563 0
DWIDTH 9 0
BBX 9 16 0 -4
BITMAP
0000
0000
0000
0000
1c00
1c00
0000
7f00
0000
1c00
1c00
0000
0000
0000
0000
0000
ENDCHAR
STARTCHAR fm
ENCODING 158
SWIDTH 563 0
DWIDTH 9 0
BBX 9 16 0 -4
BITMAP
0000
0000
7f80
7f80
0000
0e00
0e00
0000
0000
0e00
0e00
1c00
3800
0000
0000
0000
ENDCHAR
STARTCHAR dup
ENCODING 159
SWIDTH 563 0
DWIDTH 9 0
BBX 9 16 0 -4
BITMAP
0000
0000
7f80
7f80
0000
0c00
6d80
3f00
1e00
3f00
6d80
0c00
0000
0000
0000
0000
ENDCHAR
STARTCHAR A
ENCODING 160
SWIDTH 563 0
DWIDTH 9 0
BBX 9 16 0 -4
BITMAP
0000
0000
0000
0c00
1e00
3300
6180
6180
7f80
6180
6180
6180
0000
0000
0000
0000
ENDCHAR
STARTCHAR B
ENCODING 161
SWIDTH 563 0
DWIDTH 9 0
BBX 9 16 0 -4
BITMAP
0000
0000
0000
7e00
3300
3180
3300
3e00
3300
3180
3300
7e00
0000
0000
0000
0000
ENDCHAR
STARTCHAR C
ENCODING 162
SWIDTH 563 0
DWIDTH 9 0
BBX 9 16 0 -4
BITMAP
0000
0000
0000
0f00
1980
3000
6000
6000
6000
3000
1980
0f00
0000
0000
0000
0000
ENDCHAR
STARTCHAR D
ENCODING 163
SWIDTH 563 0
DWIDTH 9 0
BBX 9 16 0 -4
BITMAP
0000
0000
0000
7e00
3300
3180
3180
3180
3180
3180
3300
7e00
0000
0000
0000
0000
ENDCHAR
STARTCHAR E
ENCODING 164
SWIDTH 563 0
DWIDTH 9 0
BBX 9 16 0 -4
BITMAP
0000
0000
0000
7f80
6000
6000
6000
7e00
6000
6000
6000
7f80
0000
0000
0000
0000
ENDCHAR
STARTCHAR F
ENCODING 165
SWIDTH 563 0
DWIDTH 9 0
BBX 9 16 0 -4
BITMAP
0000
0000
0000
7f80
6000
6000
6000
7f00
6000
6000
6000
6000
0000
0000
0000
0000
ENDCHAR
STARTCHAR G
ENCODING 166
SWIDTH 563 0
DWIDTH 9 0
BBX 9 16 0 -4
BITMAP
0000
0000
0000
1e00
3300
6000
6000
6000
6f80
6300
3300
1f00
0000
0000
0000
0000
ENDCHAR
STARTCHAR H
ENCODING 167
SWIDTH 563 0
DWIDTH 9 0
BBX 9 16 0 -4
BITMAP
0000
0000
0000
6180
6180
6180
6180
7f80
6180
6180
6180
6180
0000
0000
0000
0000
ENDCHAR
STARTCHAR I
ENCODING 168
SWIDTH 563 0
DWIDTH 9 0
BBX 9 16 0 -4
BITMAP
0000
0000
0000
1e00
0c00
0c00
0c00
0c00
0c00
0c00
0c00
1e00
0000
0000
0000
0000
ENDCHAR
STARTCHAR J
ENCODING 169
SWIDTH 563 0
DWIDTH 9 0
BBX 9 16 0 -4
BITMAP
0000
0000
0000
0f00
0600
0600
0600
0600
0600
6600
6600
3c00
0000
0000
0000
0000
ENDCHAR
STARTCHAR K
ENCODING 170
SWIDTH 563 0
DWIDTH 9 0
BBX 9 16 0 -4
BITMAP
0000
0000
0000
6180
6300
6600
6c00
7800
7c00
6600
6300
6180
0000
0000
0000
0000
ENDCHAR
STARTCHAR L
ENCODING 171
SWIDTH 563 0
DWIDTH 9 0
BBX 9 16 0 -4
BITMAP
0000
0000
0000
6000
6000
6000
6000
6000
6000
6000
6000
7f80
0000
0000
0000
0000
ENDCHAR
STARTCHAR M
ENCODING 172
SWIDTH 563 0
DWIDTH 9 0
BBX 9 16 0 -4
BITMAP
0000
0000
0000
6180
7380
7f80
6d80
6d80
6180
6180
6180
6180
0000
0000
0000
0000
ENDCHAR
STARTCHAR N
ENCODING 173
SWIDTH 563 0
DWIDTH 9 0
BBX 9 16 0 -4
BITMAP
0000
0000
0000
6180
7180
7980
6d80
6780
6380
6180
6180
6180
0000
0000
0000
0000
ENDCHAR
STARTCHAR O
ENCODING 174
SWIDTH 563 0
DWIDTH 9 0
BBX 9 16 0 -4
BITMAP
0000
0000
0000
3f00
6180
6180
6180
6180
6180
6180
6180
3f00
0000
0000
0000
0000
ENDCHAR
STARTCHAR P
ENCODING 175
SWIDTH 563 0
DWIDTH 9 0
BBX 9 16 0 -4
BITMAP
0000
0000
0000
7e00
6300
6180
6180
6300
7e00
6000
6000
6000
0000
0000
0000
0000
ENDCHAR
STARTCHAR Q
ENCODING 176
SWIDTH 563 0
DWIDTH 9 0
BBX 9 16 0 -4
BITMAP
0000
0000
0000
1e00
3300
6180
6180
6180
6180
6d80
3f00
1e00
0300
0180
0000
0000
ENDCHAR
STARTCHAR R
ENCODING 177
SWIDTH 563 0
DWIDTH 9 0
BBX 9 16 0 -4
BITMAP
0000
0000
0000
7f00
6180
6180
6180
7f00
6c00
6600
6300
6180
0000
0000
0000
0000
ENDCHAR
STARTCHAR S
ENCODING 178
SWIDTH 563 0
DWIDTH 9 0
BBX 9 16 0 -4
BITMAP
0000
0000
0000
3f00
6180
6000
3800
0c00
0700
0180
6180
3f00
0000
0000
0000
0000
ENDCHAR
STARTCHAR T
ENCODING 179
SWIDTH 563 0
DWIDTH 9 0
BBX 9 16 0 -4
BITMAP
0000
0000
0000
7f80
0c00
0c00
0c00
0c00
0c00
0c00
0c00
0c00
0000
0000
0000
0000
ENDCHAR
STARTCHAR U
ENCODING 180
SWIDTH 563 0
DWIDTH 9 0
BBX 9 16 0 -4
BITMAP
0000
0000
0000
6180
6180
6180
6180
6180
6180
6180
6180
3f00
0000
0000
0000
0000
ENDCHAR
STARTCHAR V
ENCODING 181
SWIDTH 563 0
DWIDTH 9 0
BBX 9 16 0 -4
BITMAP
0000
0000
0000
6180
6180
3300
3300
3300
1e00
1e00
0c00
0c00
0000
0000
0000
0000
ENDCHAR
STARTCHAR W
ENCODING 182
SWIDTH 563 0
DWIDTH 9 0
BBX 9 16 0 -4
BITMAP
0000
0000
0000
6180
6180
6180
6180
6d80
6d80
6d80
7f80
3300
0000
0000
0000
0000
ENDCHAR
STARTCHAR X
ENCODING 183
SWIDTH 563 0
DWIDTH 9 0
BBX 9 16 0 -4
BITMAP
0000
0000
0000
6180
6180
3300
1e00
0c00
1e00
3300
6180
6180
0000
0000
0000
0000
ENDCHAR
STARTCHAR Y
ENCODING 184
SWIDTH 563 0
DWIDTH 9 0
BBX 9 16 0 -4
BITMAP
0000
0000
0000
6180
3300
1e00
0c00
0c00
0c00
0c00
0c00
0c00
0000
0000
0000
0000
ENDCHAR
STARTCHAR Z
ENCODING 185
SWIDTH 563 0
DWIDTH 9 0
BBX 9 16 0 -4
BITMAP
0000
0000
0000
7f80
0180
0300
0600
0c00
1800
3000
6000
7f80
0000
0000
0000
0000
ENDCHAR
STARTCHAR AE
ENCODING 186
SWIDTH 563 0
DWIDTH 9 0
BBX 9 16 0 -4
BITMAP
0000
0000
0000
0f80
1e00
3600
6600
6780
7e00
6600
6600
6780
0000
0000
0000
0000
ENDCHAR
STARTCHAR Ooblique
ENCODING 187
SWIDTH 563 0
DWIDTH 9 0
BBX 9 16 0 -4
BITMAP
0000
0000
0000
3f00
6180
6380
6780
6d80
7980
7180
6180
3f00
0000
0000
0000
0000
ENDCHAR
STARTCHAR Aring
ENCODING 188
SWIDTH 563 0
DWIDTH 9 0
BBX 9 16 0 -4
BITMAP
0000
1e00
1e00
0c00
1e00
3300
6180
6180
7f80
6180
6180
6180
0000
0000
0000
0000
ENDCHAR
STARTCHAR Ccedilla
ENCODING 189
SWIDTH 563 0
DWIDTH 9 0
BBX 9 16 0 -4
BITMAP
0000
0000
0000
0f00
1980
3000
6000
6000
6000
3000
1980
0f00
0600
3e00
0000
0000
ENDCHAR
STARTCHAR semicolon
ENCODING 190
SWIDTH 563 0
DWIDTH 9 0
BBX 9 16 0 -4
BITMAP
0000
0000
0000
0000
0000
0000
0e00
0e00
0000
0000
0e00
0e00
1c00
3800
0000
0000
ENDCHAR
STARTCHAR asterisk
ENCODING 191
SWIDTH 563 0
DWIDTH 9 0
BBX 9 16 0 -4
BITMAP
0000
0000
0000
0c00
6d80
3f00
1e00
3f00
6d80
0c00
0000
0000
0000
0000
0000
0000
ENDCHAR
STARTCHAR c0
ENCODING 192
SWIDTH 563 0
DWIDTH 9 0
BBX 9 16 0 -4
BITMAP
0000
0000
0000
0000
0000
0000
0000
0000
0000
0000
0000
0000
0000
0000
0000
0000
ENDCHAR
STARTCHAR c1
ENCODING 193
SWIDTH 563 0
DWIDTH 9 0
BBX 9 16 0 -4
BITMAP
0000
0000
0000
0000
0000
0000
0000
0000
0000
0000
0000
0000
0000
0000
0000
0000
ENDCHAR
STARTCHAR c2
ENCODING 194
SWIDTH 563 0
DWIDTH 9 0
BBX 9 16 0 -4
BITMAP
0000
0000
0000
0000
0000
0000
0000
0000
0000
0000
0000
0000
0000
0000
0000
0000
ENDCHAR
STARTCHAR c3
ENCODING 195
SWIDTH 563 0
DWIDTH 9 0
BBX 9 16 0 -4
BITMAP
0000
0000
0000
0000
0000
0000
0000
0000
0000
0000
0000
0000
0000
0000
0000
0000
ENDCHAR
STARTCHAR c4
ENCODING 196
SWIDTH 563 0
DWIDTH 9 0
BBX 9 16 0 -4
BITMAP
0000
0000
0000
0000
0000
0000
0000
0000
0000
0000
0000
0000
0000
0000
0000
0000
ENDCHAR
STARTCHAR c5
ENCODING 197
SWIDTH 563 0
DWIDTH 9 0
BBX 9 16 0 -4
BITMAP
0000
0000
0000
0000
0000
0000
0000
0000
0000
0000
0000
0000
0000
0000
0000
0000
ENDCHAR
STARTCHAR c6
ENCODING 198
SWIDTH 563 0
DWIDTH 9 0
BBX 9 16 0 -4
BITMAP
0000
0000
0000
0000
0000
0000
0000
0000
0000
0000
0000
0000
0000
0000
0000
0000
ENDCHAR
STARTCHAR c7
ENCODING 199
SWIDTH 563 0
DWIDTH 9 0
BBX 9 16 0 -4
BITMAP
0000
0000
0000
0000
0000
0000
0000
0000
0000
0000
0000
0000
0000
0000
0000
0000
ENDCHAR
STARTCHAR c8
ENCODING 200
SWIDTH 563 0
DWIDTH 9 0
BBX 9 16 0 -4
BITMAP
0000
0000
0000
0000
0000
0000
0000
0000
0000
0000
0000
0000
0000
0000
0000
0000
ENDCHAR
STARTCHAR c9
ENCODING 201
SWIDTH 563 0
DWIDTH 9 0
BBX 9 16 0 -4
BITMAP
0000
0000
0000
0000
0000
0000
0000
0000
0000
0000
0000
0000
0000
0000
0000
0000
ENDCHAR
STARTCHAR ca
ENCODING 202
SWIDTH 563 0
DWIDTH 9 0
BBX 9 16 0 -4
BITMAP
0000
0000
0000
0000
0000
0000
0000
0000
0000
0000
0000
0000
0000
0000
0000
0000
ENDCHAR
STARTCHAR cb
ENCODING 203
SWIDTH 563 0
DWIDTH 9 0
BBX 9 16 0 -4
BITMAP
0000
0000
0000
0000
0000
0000
0000
0000
0000
0000
0000
0000
0000
0000
0000
0000
ENDCHAR
STARTCHAR cc
ENCODING 204
SWIDTH 563 0
DWIDTH 9 0
BBX 9 16 0 -4
BITMAP
0000
0000
0000
0000
0000
0000
0000
0000
0000
0000
0000
0000
0000
0000
0000
0000
ENDCHAR
STARTCHAR cd
ENCODING 205
SWIDTH 563 0
DWIDTH 9 0
BBX 9 16 0 -4
BITMAP
0000
0000
0000
0000
0000
0000
0000
0000
0000
0000
0000
0000
0000
0000
0000
0000
ENDCHAR
STARTCHAR ce
ENCODING 206
SWIDTH 563 0
DWIDTH 9 0
BBX 9 16 0 -4
BITMAP
0000
0000
0000
0000
0000
0000
0000
0000
0000
0000
0000
0000
0000
0000
0000
0000
ENDCHAR
STARTCHAR cf
ENCODING 207
SWIDTH 563 0
DWIDTH 9 0
BBX 9 16 0 -4
BITMAP
0000
0000
0000
0000
0000
0000
0000
0000
0000
0000
0000
0000
0000
0000
0000
0000
ENDCHAR
STARTCHAR copyright
ENCODING 208
SWIDTH 563 0
DWIDTH 9 0
BBX 9 16 0 -4
BITMAP
0000
0000
0000
3e00
4100
4900
5500
5100
5500
4900
4100
3e00
0000
0000
0000
0000
ENDCHAR
STARTCHAR registered
ENCODING 209
SWIDTH 563 0
DWIDTH 9 0
BBX 9 16 0 -4
BITMAP
0000
0000
0000
3e00
4100
5900
5500
5900
5500
5500
4100
3e00
0000
0000
0000
0000
ENDCHAR
STARTCHAR boxA
ENCODING 210
SWIDTH 563 0
DWIDTH 9 0
BBX 9 16 0 -4
BITMAP
0000
2000
5000
8800
8800
f800
8800
8800
0000
ff80
8080
8080
ff80
0000
0000
0000
ENDCHAR
STARTCHAR insert
ENCODING 211
SWIDTH 563 0
DWIDTH 9 0
BBX 9 16 0 -4
BITMAP
0000
0000
0000
0000
0000
0800
1c00
3e00
7700
e380
c180
8080
0000
0000
0000
0000
ENDCHAR
STARTCHAR boxB
ENCODING 212
SWIDTH 563 0
DWIDTH 9 0
BBX 9 16 0 -4
BITMAP
0000
0f00
0480
0480
0700
0480
0480
0f00
0000
ff80
8080
8080
ff80
0000
0000
0000
ENDCHAR
STARTCHAR box6
ENCODING 213
SWIDTH 563 0
DWIDTH 9 0
BBX 9 16 0 -4
BITMAP
0000
0000
0000
ff80
8080
9080
a080
a080
ac80
b280
a280
9c80
8080
ff80
0000
0000
ENDCHAR
STARTCHAR plusminus
ENCODING 214
SWIDTH 563 0
DWIDTH 9 0
BBX 9 16 0 -4
BITMAP
0000
0000
0c00
0c00
0c00
7f80
0c00
0c00
0c00
0000
7f80
0000
0000
0000
0000
0000
ENDCHAR
STARTCHAR ETH
ENCODING 215
SWIDTH 563 0
DWIDTH 9 0
BBX 9 16 0 -4
BITMAP
0000
0000
0000
7e00
3300
3180
3180
7d80
3180
3180
3300
7e00
0000
0000
0000
0000
ENDCHAR
STARTCHAR rightarrow
ENCODING 216
SWIDTH 563 0
DWIDTH 9 0
BBX 9 16 0 -4
BITMAP
0000
0000
0000
0000
0000
0400
0600
ff00
0600
0400
0000
0000
0000
0000
0000
0000
ENDCHAR
STARTCHAR THORN
ENCODING 217
SWIDTH 563 0
DWIDTH 9 0
BBX 9 16 0 -4
BITMAP
0000
0000
0000
6000
6000
7e00
6300
6180
6300
7e00
6000
6000
0000
0000
0000
0000
ENDCHAR
STARTCHAR upshift
ENCODING 218
SWIDTH 563 0
DWIDTH 9 0
BBX 9 16 0 -4
BITMAP
0000
0000
0800
1400
2200
4100
7700
1400
1400
1400
1400
1400
1c00
0000
0000
0000
ENDCHAR
STARTCHAR human
ENCODING 219
SWIDTH 563 0
DWIDTH 9 0
BBX 9 16 0 -4
BITMAP
0000
0000
1c00
1400
1c00
0800
7f00
0800
0800
1400
2200
4100
0000
0000
0000
0000
ENDCHAR
STARTCHAR underB
ENCODING 220
SWIDTH 563 0
DWIDTH 9 0
BBX 9 16 0 -4
BITMAP
0000
3c00
1200
1200
1c00
1200
1200
3c00
0000
ff80
0000
0000
0000
0000
0000
0000
ENDCHAR
STARTCHAR downshift
ENCODING 221
SWIDTH 563 0
DWIDTH 9 0
BBX 9 16 0 -4
BITMAP
0000
0000
1c00
1400
1400
1400
1400
1400
7700
4100
2200
1400
0800
0000
0000
0000
ENDCHAR
STARTCHAR boxquestion
ENCODING 222
SWIDTH 563 0
DWIDTH 9 0
BBX 9 16 0 -4
BITMAP
0000
ff80
8080
9c80
a280
a280
8280
8480
8880
8880
8080
8880
8080
ff80
0000
0000
ENDCHAR
STARTCHAR boxsolid
ENCODING 223
SWIDTH 563 0
DWIDTH 9 0
BBX 9 16 0 -4
BITMAP
0000
ff80
ff80
ff80
ff80
ff80
ff80
ff80
ff80
ff80
ff80
ff80
ff80
ff80
0000
0000
ENDCHAR
STARTCHAR e0
ENCODING 224
SWIDTH 563 0
DWIDTH 9 0
BBX 9 16 0 -4
BITMAP
0000
0000
0000
0000
0000
0000
0000
0000
0000
0000
0000
0000
0000
0000
0000
0000
ENDCHAR
STARTCHAR e1
ENCODING 225
SWIDTH 563 0
DWIDTH 9 0
BBX 9 16 0 -4
BITMAP
0000
0000
0000
0000
0000
0000
0000
0000
0000
0000
0000
0000
0000
0000
0000
0000
ENDCHAR
STARTCHAR e2
ENCODING 226
SWIDTH 563 0
DWIDTH 9 0
BBX 9 16 0 -4
BITMAP
0000
0000
0000
0000
0000
0000
0000
0000
0000
0000
0000
0000
0000
0000
0000
0000
ENDCHAR
STARTCHAR e3
ENCODING 227
SWIDTH 563 0
DWIDTH 9 0
BBX 9 16 0 -4
BITMAP
0000
0000
0000
0000
0000
0000
0000
0000
0000
0000
0000
0000
0000
0000
0000
0000
ENDCHAR
STARTCHAR e4
ENCODING 228
SWIDTH 563 0
DWIDTH 9 0
BBX 9 16 0 -4
BITMAP
0000
0000
0000
0000
0000
0000
0000
0000
0000
0000
0000
0000
0000
0000
0000
0000
ENDCHAR
STARTCHAR e5
ENCODING 229
SWIDTH 563 0
DWIDTH 9 0
BBX 9 16 0 -4
BITMAP
0000
0000
0000
0000
0000
0000
0000
0000
0000
0000
0000
0000
0000
0000
0000
0000
ENDCHAR
STARTCHAR e6
ENCODING 230
SWIDTH 563 0
DWIDTH 9 0
BBX 9 16 0 -4
BITMAP
0000
0000
0000
0000
0000
0000
0000
0000
0000
0000
0000
0000
0000
0000
0000
0000
ENDCHAR
STARTCHAR e7
ENCODING 231
SWIDTH 563 0
DWIDTH 9 0
BBX 9 16 0 -4
BITMAP
0000
0000
0000
0000
0000
0000
0000
0000
0000
0000
0000
0000
0000
0000
0000
0000
ENDCHAR
STARTCHAR e8
ENCODING 232
SWIDTH 563 0
DWIDTH 9 0
BBX 9 16 0 -4
BITMAP
0000
0000
0000
0000
0000
0000
0000
0000
0000
0000
0000
0000
0000
0000
0000
0000
ENDCHAR
STARTCHAR e9
ENCODING 233
SWIDTH 563 0
DWIDTH 9 0
BBX 9 16 0 -4
BITMAP
0000
0000
0000
0000
0000
0000
0000
0000
0000
0000
0000
0000
0000
0000
0000
0000
ENDCHAR
STARTCHAR ea
ENCODING 234
SWIDTH 563 0
DWIDTH 9 0
BBX 9 16 0 -4
BITMAP
0000
0000
0000
0000
0000
0000
0000
0000
0000
0000
0000
0000
0000
0000
0000
0000
ENDCHAR
STARTCHAR eb
ENCODING 235
SWIDTH 563 0
DWIDTH 9 0
BBX 9 16 0 -4
BITMAP
0000
0000
0000
0000
0000
0000
0000
0000
0000
0000
0000
0000
0000
0000
0000
0000
ENDCHAR
STARTCHAR ec
ENCODING 236
SWIDTH 563 0
DWIDTH 9 0
BBX 9 16 0 -4
BITMAP
0000
0000
0000
0000
0000
0000
0000
0000
0000
0000
0000
0000
0000
0000
0000
0000
ENDCHAR
STARTCHAR ed
ENCODING 237
SWIDTH 563 0
DWIDTH 9 0
BBX 9 16 0 -4
BITMAP
0000
0000
0000
0000
0000
0000
0000
0000
0000
0000
0000
0000
0000
0000
0000
0000
ENDCHAR
STARTCHAR ee
ENCODING 238
SWIDTH 563 0
DWIDTH 9 0
BBX 9 16 0 -4
BITMAP
0000
0000
0000
0000
0000
0000
0000
0000
0000
0000
0000
0000
0000
0000
0000
0000
ENDCHAR
STARTCHAR ef
ENCODING 239
SWIDTH 563 0
DWIDTH 9 0
BBX 9 16 0 -4
BITMAP
0000
0000
0000
0000
0000
0000
0000
0000
0000
0000
0000
0000
0000
0000
0000
0000
ENDCHAR
STARTCHAR badcommhi
ENCODING 240
SWIDTH 563 0
DWIDTH 9 0
BBX 9 16 0 -4
BITMAP
0000
0000
8000
c000
e000
7000
3800
ff80
0e00
0700
0380
0180
0080
0000
0000
0000
ENDCHAR
STARTCHAR commhi
ENCODING 241
SWIDTH 563 0
DWIDTH 9 0
BBX 9 16 0 -4
BITMAP
0000
0000
0000
0000
0000
0000
0000
ff80
0000
0000
0000
0000
0000
0000
0000
0000
ENDCHAR
STARTCHAR commjag
ENCODING 242
SWIDTH 563 0
DWIDTH 9 0
BBX 9 16 0 -4
BITMAP
0000
0000
0000
0000
0000
0000
0000
fc00
0800
1000
2000
7f80
0000
0000
0000
0000
ENDCHAR
STARTCHAR commlo
ENCODING 243
SWIDTH 563 0
DWIDTH 9 0
BBX 9 16 0 -4
BITMAP
0000
0000
0000
0000
0000
0000
0000
0000
0000
0000
0000
ff80
0000
0000
0000
0000
ENDCHAR
STARTCHAR clockleft
ENCODING 244
SWIDTH 563 0
DWIDTH 9 0
BBX 9 16 0 -4
BITMAP
0000
0000
0100
0800
0000
2000
0000
0080
4100
0100
0100
2100
0100
0800
0100
0000
ENDCHAR
STARTCHAR clockright
ENCODING 245
SWIDTH 563 0
DWIDTH 9 0
BBX 9 16 0 -4
BITMAP
0000
0000
2000
0000
2800
4000
8000
0400
0000
0000
0800
0000
2000
0000
0000
0000
ENDCHAR
STARTCHAR lock
ENCODING 246
SWIDTH 563 0
DWIDTH 9 0
BBX 9 16 0 -4
BITMAP
0000
8080
c180
e380
f780
7f00
3e00
3e00
7f00
f780
e380
c180
8080
0000
0000
0000
ENDCHAR
STARTCHAR eth
ENCODING 247
SWIDTH 563 0
DWIDTH 9 0
BBX 9 16 0 -4
BITMAP
0000
0f00
0600
0f00
0300
1f00
3300
6300
6300
6300
3300
1e00
0000
0000
0000
0000
ENDCHAR
STARTCHAR leftarrow
ENCODING 248
SWIDTH 563 0
DWIDTH 9 0
BBX 9 16 0 -4
BITMAP
0000
0000
0000
0000
0000
1000
3000
7f80
3000
1000
0000
0000
0000
0000
0000
0000
ENDCHAR
STARTCHAR thorn
ENCODING 249
SWIDTH 563 0
DWIDTH 9 0
BBX 9 16 0 -4
BITMAP
0000
0000
6000
6000
6000
7c00
6600
6300
6300
6300
6600
7c00
6000
6000
6000
0000
ENDCHAR
STARTCHAR keyleft
ENCODING 250
SWIDTH 563 0
DWIDTH 9 0
BBX 9 16 0 -4
BITMAP
0000
0000
0000
0000
0e00
1100
1180
1100
0e00
0000
0000
0000
0000
0000
0000
0000
ENDCHAR
STARTCHAR keyright
ENCODING 251
SWIDTH 563 0
DWIDTH 9 0
BBX 9 16 0 -4
BITMAP
0000
0000
0000
0000
0000
0000
ff80
1d80
1d80
0180
0000
0000
0000
0000
0000
0000
ENDCHAR
STARTCHAR box4
ENCODING 252
SWIDTH 563 0
DWIDTH 9 0
BBX 9 16 0 -4
BITMAP
0000
0000
0000
ff80
8080
8480
8c80
9480
a480
be80
8480
8480
8080
ff80
0000
0000
ENDCHAR
STARTCHAR underA
ENCODING 253
SWIDTH 563 0
DWIDTH 9 0
BBX 9 16 0 -4
BITMAP
0000
0800
1400
2200
2200
3e00
2200
2200
0000
ff80
0000
0000
0000
0000
0000
0000
ENDCHAR
STARTCHAR magcard
ENCODING 254
SWIDTH 563 0
DWIDTH 9 0
BBX 9 16 0 -4
BITMAP
0000
0000
0000
0000
ff80
8080
8080
8080
ff80
8080
ff80
0000
0000
0000
0000
0000
ENDCHAR
STARTCHAR boxhuman
ENCODING 255
SWIDTH 563 0
DWIDTH 9 0
BBX 9 16 0 -4
BITMAP
0000
ff80
8080
9c80
9480
9c80
8880
ff80
8880
8880
9480
a280
c180
ff80
0000
0000
ENDCHAR
STARTCHAR apl_space
ENCODING 272
SWIDTH 563 0
DWIDTH 9 0
BBX 9 16 0 -4
BITMAP
0000
0000
0000
0000
0000
0000
0000
0000
0000
0000
0000
0000
0000
0000
0000
0000
ENDCHAR
STARTCHAR apl_bracketright
ENCODING 316
SWIDTH 563 0
DWIDTH 9 0
BBX 9 16 0 -4
BITMAP
0000
0000
1e00
0600
0600
0600
0600
0600
0600
0600
0600
0600
1e00
0000
0000
0000
ENDCHAR
STARTCHAR apl_bracketleft
ENCODING 328
SWIDTH 563 0
DWIDTH 9 0
BBX 9 16 0 -4
BITMAP
0000
0000
1e00
1800
1800
1800
1800
1800
1800
1800
1800
1800
1e00
0000
0000
0000
ENDCHAR
STARTCHAR apl_stile
ENCODING 347
SWIDTH 563 0
DWIDTH 9 0
BBX 9 16 0 -4
BITMAP
0c00
0c00
0c00
0c00
0c00
0c00
0c00
0c00
0c00
0c00
0c00
0c00
0c00
0c00
0c00
0c00
ENDCHAR
STARTCHAR apl_2vertical
ENCODING 384
SWIDTH 563 0
DWIDTH 9 0
BBX 9 16 0 -4
BITMAP
6180
6180
6180
6180
6180
6180
6180
6180
6180
6180
6180
6180
6180
6180
6180
6180
ENDCHAR
STARTCHAR apl_2horizontal
ENCODING 385
SWIDTH 563 0
DWIDTH 9 0
BBX 9 16 0 -4
BITMAP
0000
ff80
0000
0000
0000
0000
0000
0000
0000
0000
0000
0000
0000
0000
ff80
0000
ENDCHAR
STARTCHAR apl_leftvbar
ENCODING 386
SWIDTH 563 0
DWIDTH 9 0
BBX 9 16 0 -4
BITMAP
6000
6000
6000
6000
6000
6000
6000
6000
6000
6000
6000
6000
6000
6000
6000
6000
ENDCHAR
STARTCHAR apl_rightvbar
ENCODING 387
SWIDTH 563 0
DWIDTH 9 0
BBX 9 16 0 -4
BITMAP
0180
0180
0180
0180
0180
0180
0180
0180
0180
0180
0180
0180
0180
0180
0180
0180
ENDCHAR
STARTCHAR apl_midvbar
ENCODING 388
SWIDTH 563 0
DWIDTH 9 0
BBX 9 16 0 -4
BITMAP
0c00
0c00
0c00
0c00
0c00
0c00
0c00
0c00
0c00
0c00
0c00
0c00
0c00
0c00
0c00
0c00
ENDCHAR
STARTCHAR apl_leftsolid
ENCODING 393
SWIDTH 563 0
DWIDTH 9 0
BBX 9 16 0 -4
BITMAP
fc00
fc00
fc00
fc00
fc00
fc00
fc00
fc00
fc00
fc00
fc00
fc00
fc00
fc00
fc00
fc00
ENDCHAR
STARTCHAR apl_rightsolid
ENCODING 394
SWIDTH 563 0
DWIDTH 9 0
BBX 9 16 0 -4
BITMAP
0f80
0f80
0f80
0f80
0f80
0f80
0f80
0f80
0f80
0f80
0f80
0f80
0f80
0f80
0f80
0f80
ENDCHAR
STARTCHAR apl_topsolid
ENCODING 395
SWIDTH 563 0
DWIDTH 9 0
BBX 9 16 0 -4
BITMAP
ff80
ff80
ff80
ff80
ff80
ff80
ff80
ff80
0000
0000
0000
0000
0000
0000
0000
0000
ENDCHAR
STARTCHAR apl_bottomsolid
ENCODING 396
SWIDTH 563 0
DWIDTH 9 0
BBX 9 16 0 -4
BITMAP
0000
0000
0000
0000
0000
0000
0000
0000
ff80
ff80
ff80
ff80
ff80
ff80
ff80
ff80
ENDCHAR
STARTCHAR apl_solid
ENCODING 397
SWIDTH 563 0
DWIDTH 9 0
BBX 9 16 0 -4
BITMAP
ff80
ff80
ff80
ff80
ff80
ff80
ff80
ff80
ff80
ff80
ff80
ff80
ff80
ff80
ff80
ff80
ENDCHAR
STARTCHAR apl_midhbar
ENCODING 402
SWIDTH 563 0
DWIDTH 9 0
BBX 9 16 0 -4
BITMAP
0000
0000
0000
0000
0000
0000
0000
ff80
0000
0000
0000
0000
0000
0000
0000
0000
ENDCHAR
STARTCHAR apl_lowerleft
ENCODING 419
SWIDTH 563 0
DWIDTH 9 0
BBX 9 16 0 -4
BITMAP
0c00
0c00
0c00
0c00
0c00
0c00
0c00
0f80
0000
0000
0000
0000
0000
0000
0000
0000
ENDCHAR
STARTCHAR apl_upperleft
ENCODING 420
SWIDTH 563 0
DWIDTH 9 0
BBX 9 16 0 -4
BITMAP
0000
0000
0000
0000
0000
0000
0000
0f80
0c00
0c00
0c00
0c00
0c00
0c00
0c00
0c00
ENDCHAR
STARTCHAR apl_leftjoin
ENCODING 421
SWIDTH 563 0
DWIDTH 9 0
BBX 9 16 0 -4
BITMAP
0c00
0c00
0c00
0c00
0c00
0c00
0c00
0f80
0c00
0c00
0c00
0c00
0c00
0c00
0c00
0c00
ENDCHAR
STARTCHAR apl_bottomjoin
ENCODING 422
SWIDTH 563 0
DWIDTH 9 0
BBX 9 16 0 -4
BITMAP
0c00
0c00
0c00
0c00
0c00
0c00
0c00
ff80
0000
0000
0000
0000
0000
0000
0000
0000
ENDCHAR
STARTCHAR apl_intersect
ENCODING 427
SWIDTH 563 0
DWIDTH 9 0
BBX 9 16 0 -4
BITMAP
0c00
0c00
0c00
0c00
0c00
0c00
0c00
ff80
0c00
0c00
0c00
0c00
0c00
0c00
0c00
0c00
ENDCHAR
STARTCHAR apl_lowerright
ENCODING 428
SWIDTH 563 0
DWIDTH 9 0
BBX 9 16 0 -4
BITMAP
0c00
0c00
0c00
0c00
0c00
0c00
0c00
fc00
0000
0000
0000
0000
0000
0000
0000
0000
ENDCHAR
STARTCHAR apl_upperright
ENCODING 429
SWIDTH 563 0
DWIDTH 9 0
BBX 9 16 0 -4
BITMAP
0000
0000
0000
0000
0000
0000
0000
fc00
0c00
0c00
0c00
0c00
0c00
0c00
0c00
0c00
ENDCHAR
STARTCHAR apl_rightjoin
ENCODING 430
SWIDTH 563 0
DWIDTH 9 0
BBX 9 16 0 -4
BITMAP
0c00
0c00
0c00
0c00
0c00
0c00
0c00
fc00
0c00
0c00
0c00
0c00
0c00
0c00
0c00
0c00
ENDCHAR
STARTCHAR apl_topjoin
ENCODING 431
SWIDTH 563 0
DWIDTH 9 0
BBX 9 16 0 -4
BITMAP
0000
0000
0000
0000
0000
0000
0000
ff80
0c00
0c00
0c00
0c00
0c00
0c00
0c00
0c00
ENDCHAR
STARTCHAR dec_solid
ENCODING 512
SWIDTH 563 0
DWIDTH 9 0
BBX 9 16 0 -4
BITMAP
3f00
3f00
3f00
3f00
3f00
3f00
3f00
3f00
3f00
3f00
3f00
3f00
3f00
3f00
3f00
3f00
ENDCHAR
STARTCHAR dec_filled_circle
ENCODING 513
SWIDTH 563 0
DWIDTH 9 0
BBX 9 16 0 -4
BITMAP
0000
0000
0000
0000
0000
1e00
3f00
3f00
3f00
1e00
0000
0000
0000
0000
0000
0000
ENDCHAR
STARTCHAR dec_halftone_block
ENCODING 514
SWIDTH 563 0
DWIDTH 9 0
BBX 9 16 0 -4
BITMAP
aa80
5500
aa80
5500
aa80
5500
aa80
5500
aa80
5500
aa80
5500
aa80
5500
aa80
5500
ENDCHAR
STARTCHAR dec_ht
ENCODING 515
SWIDTH 563 0
DWIDTH 9 0
BBX 9 16 0 -4
BITMAP
0000
6c00
6c00
7c00
6c00
6c00
6c00
0000
1f80
0600
0600
0600
0600
0600
0000
0000
ENDCHAR
STARTCHAR dec_ff
ENCODING 516
SWIDTH 563 0
DWIDTH 9 0
BBX 9 16 0 -4
BITMAP
0000
7c00
6000
7800
6000
6000
6000
0000
0f80
0c00
0f00
0c00
0c00
0c00
0000
0000
ENDCHAR
STARTCHAR dec_cr
ENCODING 517
SWIDTH 563 0
DWIDTH 9 0
BBX 9 16 0 -4
BITMAP
0000
3800
6c00
6000
6000
6c00
3800
0000
0f00
0d80
0f00
0d80
0d80
0d80
0000
0000
ENDCHAR
STARTCHAR dec_lf
ENCODING 518
SWIDTH 563 0
DWIDTH 9 0
BBX 9 16 0 -4
BITMAP
0000
6000
6000
6000
6000
6000
7c00
0000
0f80
0c00
0f00
0c00
0c00
0c00
0000
0000
ENDCHAR
STARTCHAR dec_degree
ENCODING 519
SWIDTH 563 0
DWIDTH 9 0
BBX 9 16 0 -4
BITMAP
0000
0000
1c00
3600
3600
1c00
0000
0000
0000
0000
0000
0000
0000
0000
0000
0000
ENDCHAR
STARTCHAR dec_plusminus
ENCODING 520
SWIDTH 563 0
DWIDTH 9 0
BBX 9 16 0 -4
BITMAP
0000
0000
0c00
0c00
0c00
7f80
0c00
0c00
0c00
0000
7f80
0000
0000
0000
0000
0000
ENDCHAR
STARTCHAR dec_nl
ENCODING 521
SWIDTH 563 0
DWIDTH 9 0
BBX 9 16 0 -4
BITMAP
0000
6c00
7c00
7c00
6c00
6c00
6c00
0000
0c00
0c00
0c00
0c00
0c00
0f80
0000
0000
ENDCHAR
STARTCHAR dec_vt
ENCODING 522
SWIDTH 563 0
DWIDTH 9 0
BBX 9 16 0 -4
BITMAP
0000
6600
6600
6600
3c00
3c00
1800
0000
1f80
0600
0600
0600
0600
0600
0000
0000
ENDCHAR
STARTCHAR dec_lowerright
ENCODING 523
SWIDTH 563 0
DWIDTH 9 0
BBX 9 16 0 -4
BITMAP
0c00
0c00
0c00
0c00
0c00
0c00
0c00
fc00
0000
0000
0000
0000
0000
0000
0000
0000
ENDCHAR
STARTCHAR dec_upperright
ENCODING 524
SWIDTH 563 0
DWIDTH 9 0
BBX 9 16 0 -4
BITMAP
0000
0000
0000
0000
0000
0000
0000
fc00
0c00
0c00
0c00
0c00
0c00
0c00
0c00
0c00
ENDCHAR
STARTCHAR dec_upperleft
ENCODING 525
SWIDTH 563 0
DWIDTH 9 0
BBX 9 16 0 -4
BITMAP
0000
0000
0000
0000
0000
0000
0000
0f80
0c00
0c00
0c00
0c00
0c00
0c00
0c00
0c00
ENDCHAR
STARTCHAR dec_lowerleft
ENCODING 526
SWIDTH 563 0
DWIDTH 9 0
BBX 9 16 0 -4
BITMAP
0c00
0c00
0c00
0c00
0c00
0c00
0c00
0f80
0000
0000
0000
0000
0000
0000
0000
0000
ENDCHAR
STARTCHAR dec_intersect
ENCODING 527
SWIDTH 563 0
DWIDTH 9 0
BBX 9 16 0 -4
BITMAP
0c00
0c00
0c00
0c00
0c00
0c00
0c00
ff80
0c00
0c00
0c00
0c00
0c00
0c00
0c00
0c00
ENDCHAR
STARTCHAR dec_hbar1
ENCODING 528
SWIDTH 563 0
DWIDTH 9 0
BBX 9 16 0 -4
BITMAP
0000
ff80
0000
0000
0000
0000
0000
0000
0000
0000
0000
0000
0000
0000
0000
0000
ENDCHAR
STARTCHAR dec_hbar2
ENCODING 529
SWIDTH 563 0
DWIDTH 9 0
BBX 9 16 0 -4
BITMAP
0000
0000
0000
0000
ff80
0000
0000
0000
0000
0000
0000
0000
0000
0000
0000
0000
ENDCHAR
STARTCHAR dec_hbar3
ENCODING 530
SWIDTH 563 0
DWIDTH 9 0
BBX 9 16 0 -4
BITMAP
0000
0000
0000
0000
0000
0000
0000
ff80
0000
0000
0000
0000
0000
0000
0000
0000
ENDCHAR
STARTCHAR dec_hbar4
ENCODING 531
SWIDTH 563 0
DWIDTH 9 0
BBX 9 16 0 -4
BITMAP
0000
0000
0000
0000
0000
0000
0000
0000
0000
0000
ff80
0000
0000
0000
0000
0000
ENDCHAR
STARTCHAR dec_hbar5
ENCODING 532
SWIDTH 563 0
DWIDTH 9 0
BBX 9 16 0 -4
BITMAP
0000
0000
0000
0000
0000
0000
0000
0000
0000
0000
0000
0000
0000
ff80
0000
0000
ENDCHAR
STARTCHAR dec_leftjoin
ENCODING 533
SWIDTH 563 0
DWIDTH 9 0
BBX 9 16 0 -4
BITMAP
0c00
0c00
0c00
0c00
0c00
0c00
0c00
0f80
0c00
0c00
0c00
0c00
0c00
0c00
0c00
0c00
ENDCHAR
STARTCHAR dec_rightjoin
ENCODING 534
SWIDTH 563 0
DWIDTH 9 0
BBX 9 16 0 -4
BITMAP
0c00
0c00
0c00
0c00
0c00
0c00
0c00
fc00
0c00
0c00
0c00
0c00
0c00
0c00
0c00
0c00
ENDCHAR
STARTCHAR dec_bottomjoin
ENCODING 535
SWIDTH 563 0
DWIDTH 9 0
BBX 9 16 0 -4
BITMAP
0c00
0c00
0c00
0c00
0c00
0c00
0c00
ff80
0000
0000
0000
0000
0000
0000
0000
0000
ENDCHAR
STARTCHAR dec_topjoin
ENCODING 536
SWIDTH 563 0
DWIDTH 9 0
BBX 9 16 0 -4
BITMAP
0000
0000
0000
0000
0000
0000
0000
ff80
0c00
0c00
0c00
0c00
0c00
0c00
0c00
0c00
ENDCHAR
STARTCHAR dec_vbar
ENCODING 537
SWIDTH 563 0
DWIDTH 9 0
BBX 9 16 0 -4
BITMAP
0c00
0c00
0c00
0c00
0c00
0c00
0c00
0c00
0c00
0c00
0c00
0c00
0c00
0c00
0c00
0c00
ENDCHAR
STARTCHAR dec_notgreater
ENCODING 538
SWIDTH 563 0
DWIDTH 9 0
BBX 9 16 0 -4
BITMAP
0000
0000
0000
0300
0600
0c00
1800
3000
1800
0c00
0600
0300
0000
3f00
0000
0000
ENDCHAR
STARTCHAR dec_notless
ENCODING 539
SWIDTH 563 0
DWIDTH 9 0
BBX 9 16 0 -4
BITMAP
0000
0000
0000
3000
1800
0c00
0600
0300
0600
0c00
1800
3000
0000
3f00
0000
0000
ENDCHAR
STARTCHAR dec_pi
ENCODING 540
SWIDTH 563 0
DWIDTH 9 0
BBX 9 16 0 -4
BITMAP
0000
0000
0000
7f80
3300
3300
3300
3300
3300
3300
3300
6300
0000
0000
0000
0000
ENDCHAR
STARTCHAR dec_notequal
ENCODING 541
SWIDTH 563 0
DWIDTH 9 0
BBX 9 16 0 -4
BITMAP
0000
0000
0000
0000
0180
0300
7f80
0c00
7f80
1800
3000
0000
0000
0000
0000
0000
ENDCHAR
STARTCHAR dec_sterling
ENCODING 542
SWIDTH 563 0
DWIDTH 9 0
BBX 9 16 0 -4
BITMAP
0000
0000
0e00
1b00
1800
1800
7e00
1800
1800
1800
7980
7f00
0000
0000
0000
0000
ENDCHAR
STARTCHAR dec_periodcentered
ENCODING 543
SWIDTH 563 0
DWIDTH 9 0
BBX 9 16 0 -4
BITMAP
0000
0000
0000
0000
0000
0000
1c00
1c00
0000
0000
0000
0000
0000
0000
0000
0000
ENDCHAR
ENDFONT
